<svg version="1.0" xmlns="http://www.w3.org/2000/svg" width="1309.333" height="1309.333" viewBox="0 0 982 982"><path d="M458.6 1C352.8 8.4 245.9 52.9 168.8 121.7c-23.7 21.1-55 54.8-71.4 76.8-47.6 64-78.9 140.4-92.5 225.8C1 448.7.7 530.6 4.5 555.5c14.8 99.7 56.7 191.2 119 260.6 20.2 22.4 54.1 54 74.2 69 62.6 46.8 138.4 78.5 221.3 92.4 36.1 6 109.3 6 146 0 83.3-13.7 157.4-44.9 223-93.9 18.6-13.9 52.1-45 71.5-66.4 54.3-60.1 96.8-144.5 113.5-225.6 8.2-40 9.3-53.8 8.7-108.7-.5-48.3-.9-52.8-8.7-90.9-16.5-81.3-58.1-164.6-112.5-225.1-20.4-22.6-52.9-52.9-73.6-68.6C723.8 50.5 644.6 17.5 564 5.5 535 1.1 486.6-.9 458.6 1zM545 25c50.2 4 117.5 25.1 168.5 52.8 44.9 24.4 79 50.3 116 88.3 34.7 35.6 58.5 69 80.8 112.9 34.9 69.1 50.7 136 50.7 214.5 0 52-7.3 96.6-24 146.5-23.2 69.9-61 130.8-113.5 183.4-94 94-218.6 142.2-352.2 136.5-68.6-2.9-125.3-17.4-185.8-47.4C212 876 154.3 826.7 107.2 760.3 68.7 705.9 40.1 635.5 28 565.5c-3.3-19.1-4-32.4-4-70.9-.1-39.3 1-58.5 4.1-77.1 16.7-99.7 61.5-187.1 132.2-257.6 54.1-54 115.2-91.7 186-114.8 26.4-8.6 56.8-15.5 89.2-20.2 11.5-1.6 17.8-1.8 54.5-1.4 22.8.2 47.6.9 55 1.5z"/><path d="M759.5 185.1c-38.6 2.8-83.3 12.8-117 26.1-23.3 9.2-53.4 25.3-79.5 42.5-44.6 29.4-81 61.4-118.5 104.3-12.5 14.2-11.5 13.8-24.9 10.2-7-1.9-10.5-2.2-29.7-2.2-19.8 0-22.5.2-31.1 2.4-64.3 16.8-129.9 78.4-171.7 161.6-8.8 17.5-11.4 24.2-11.5 29.7-.1 4 .3 4.9 3.4 7.4 5.2 4.4 8.1 3.9 18-3.1 51.2-35.8 73-47.3 97.4-51 14.2-2.1 25.9 1.3 35.5 10.6 4.9 4.9 5.3 5.5 4.9 9.1-.3 2.1-1.1 6-1.9 8.7l-1.4 4.8 51.7 51.4c32.6 32.3 52.7 51.6 54.4 52 1.4.4 5 .1 7.9-.5 6.4-1.4 8.9-.5 14.7 5.6 8.7 8.9 11.8 24.2 8.4 40.7-4.1 19.7-20.4 51.2-42.1 81.1-12.5 17.3-13.8 21.8-8.4 28 4.2 4.7 6.7 4.6 19.2-1.2 31.2-14.2 61.9-33 88.3-54.1 13.5-10.7 38.6-35.2 48.5-47.2 19.3-23.5 38.2-61.4 42-84.6.9-4.8 1.3-15.3 1.3-26.9-.1-16.5-.4-20-2.4-27-1.2-4.4-2.3-8.9-2.4-10-.1-1.4 4.3-6 14.4-15 17.9-16.1 46.2-44.2 59.9-59.5 21.9-24.5 49.6-64 66.9-95.5C779.9 336 799 260.4 799 204.4c0-12.7-.7-15.5-4.6-18.1-3.3-2.1-16.4-2.6-34.9-1.2zm16.5 28.4c0 24.4-8.5 71.9-18.7 103.8l-4.7 14.8-29.9-29.8c-32.9-32.8-68.7-70-68.7-71.3 0-1.1 20.5-7.8 36.1-11.9 20.1-5.2 63.2-11.8 78.7-12l7.2-.1v6.5zm-89 84.1l56.9 56.6-4 8.1-4.1 8-23.6-23.4c-13.1-12.9-40.7-40.3-61.4-60.9L613 248.5l7.3-3.7c3.9-2 7.8-3.7 8.5-3.8.7 0 26.9 25.5 58.2 56.6zm-8.2 46.6l46.3 46.4-11.1 16.3C663.2 482 603.4 537.7 520.5 586.7c-29.9 17.8-70.1 38.3-74.9 38.3-3.1 0-12.2-8.4-49.7-45.7l-39.7-39.5 8.1-16.6c31.8-65.9 65.2-115.8 112.1-167.1 29.7-32.6 63.7-61.1 106.5-89.3l10.3-6.8 19.7 18.9c10.8 10.4 40.4 39.8 65.9 65.3zm-282.2 43.9c3.2.5 8.5 1.7 11.7 2.6l5.7 1.6-2.6 4.6c-1.5 2.5-7.7 12.5-13.7 22.1-15.7 24.9-27.5 45.3-40.6 70.3-6.3 11.9-11.8 21.7-12.3 21.7s-3.7-2.3-7.1-5.1c-7.6-6.2-18.2-11.4-26.4-12.9-10.5-2.1-25.2-.9-36.3 2.9-14.9 5.1-38 16.6-54 27-2.4 1.5-2.3 1.4.9-4.4 5.5-10 27.5-42.4 35.4-52.3 33.1-41.3 73-69.7 109.2-77.7 7.4-1.6 22.2-1.8 30.1-.4zM592 572.2c1.8 4.7 2.5 34.7 1.1 43.8-2.4 15.1-11.6 37-22.6 53.5-16.5 24.7-43.5 50.7-75.5 72.7-8.9 6.2-27.6 18-32.8 20.7-2.3 1.2-2.3 1.2-1.1-1.1.7-1.3 3-5.2 5.2-8.8 9.8-16.1 20.9-41.4 24.2-55.2 4.2-17.9.2-34-13.2-52.2-2.4-3.2-4.3-6.1-4.3-6.5 0-1 7.7-5.5 27-15.6 22.8-11.9 45.6-25.5 70.5-41.9 10.5-6.9 19.3-12.5 19.7-12.6.3 0 1.2 1.5 1.8 3.2z"/><path d="M569.9 360.4c-9.3 2.5-19.4 10-24.9 18.7-14.7 22.8-5.4 53.7 19.8 65.7 14.7 7 32 5.3 45.1-4.3 16.9-12.4 22.9-34.1 15.1-54.8-4.1-10.8-16.2-21.4-28.9-25.1-6.4-1.9-19.6-2-26.2-.2zm24.2 22.4c7.4 3.8 13 11.9 13.7 19.5.7 8.7-5.1 18.2-13.8 22.7-9 4.6-22.1 1.5-29-6.8-4.2-5.1-6.4-13-5.2-18.6 3.5-16.5 19.7-24.4 34.3-16.8zM315.8 563.7c-2.1 2.3-11.6 19.2-20.7 36.6l-7.2 13.7 3 3.8c2.7 3.3 51 51.6 70.4 70.2l7.7 7.5 9.8-4.9c10.8-5.4 35.9-19.7 39.3-22.5l2.3-1.8-34.1-34.9c-18.8-19.2-42-42.7-51.5-52.2-16.4-16.3-17.5-17.2-19-15.5zm45.5 73.1l24.9 24.9-6.2 3.6c-3.4 2.1-6.4 3.7-6.8 3.7-.3 0-13.8-13.1-29.8-29.2l-29.3-29.1 2.6-5.1c1.4-2.8 3-5.7 3.5-6.3 1.4-1.7 9.3 5.6 41.1 37.5zm-103.4 38.9c-13.1 13-23.9 24.1-23.9 24.7 0 .7 2.1 3.3 4.8 5.9l4.7 4.7 25-25.1 25-25-4.7-4.4c-2.6-2.5-5.2-4.5-5.8-4.5-.6 0-11.9 10.6-25.1 23.7zm4.6 33.6l-39 38.4 5 5.7 4.9 5.7 39.2-39.2c31.9-31.9 39.1-39.6 38.4-40.9-1.1-2-7.7-8-8.8-8-.4 0-18.2 17.3-39.7 38.3zm30.2 10.5L263 749.5l4.8 4.8c2.6 2.6 5.2 4.7 5.7 4.7 1.3 0 58.5-57.2 58.5-58.5 0-.6-2.1-3.2-4.8-5.8l-4.7-4.7-29.8 29.8zm-73-6c-2.6 2.6-4.7 5.2-4.7 5.8 0 .5 2.2 3.1 4.8 5.7l4.8 4.7 4.7-4.8c2.6-2.6 4.7-5.2 4.7-5.8 0-.5-2.2-3.1-4.8-5.7l-4.8-4.7-4.7 4.8zm29 50.1l-5.2 5 5 4.5c2.8 2.5 5.4 4.5 5.8 4.6.5 0 2.9-1.9 5.4-4.3 4.6-4.3 4.6-4.4 2.9-7-1-1.4-3.3-3.8-5.2-5.2l-3.4-2.6-5.3 5zm-39.6-.8c-1.7 1.7-3.1 3.7-3.1 4.5 0 .8 1.9 3.5 4.2 6l4.1 4.5 3.9-3.8c6.1-5.9 6.3-6.7 2.7-10.8-4-4.5-7.6-4.7-11.8-.4z"/></svg>