<?xml version="1.0" standalone="no"?>
<!DOCTYPE svg PUBLIC "-//W3C//DTD SVG 20010904//EN"
 "http://www.w3.org/TR/2001/REC-SVG-20010904/DTD/svg10.dtd">
<svg version="1.0" xmlns="http://www.w3.org/2000/svg"
 width="982.000000pt" height="982.000000pt" viewBox="0 0 982.000000 982.000000"
 preserveAspectRatio="xMidYMid meet">
<metadata>
Created by potrace 1.14, written by Peter Selinger 2001-2017
</metadata>
<g transform="translate(0.000000,982.000000) scale(0.100000,-0.100000)"
fill="#000000" stroke="none">
<path d="M4586 9810 c-1058 -74 -2127 -519 -2898 -1207 -237 -211 -550 -548
-714 -768 -476 -640 -789 -1404 -925 -2258 -39 -244 -42 -1063 -4 -1312 148
-997 567 -1912 1190 -2606 202 -224 541 -540 742 -690 626 -468 1384 -785
2213 -924 361 -60 1093 -60 1460 0 833 137 1574 449 2230 939 186 139 521 450
715 664 543 601 968 1445 1135 2256 82 400 93 538 87 1087 -5 483 -9 528 -87
909 -165 813 -581 1646 -1125 2251 -204 226 -529 529 -736 686 -631 478 -1423
808 -2229 928 -290 44 -774 64 -1054 45z m864 -240 c502 -40 1175 -251 1685
-528 449 -244 790 -503 1160 -883 347 -356 585 -690 808 -1129 349 -691 507
-1360 507 -2145 0 -520 -73 -966 -240 -1465 -232 -699 -610 -1308 -1135 -1834
-940 -940 -2186 -1422 -3522 -1365 -686 29 -1253 174 -1858 474 -735 365
-1312 858 -1783 1522 -385 544 -671 1248 -792 1948 -33 191 -40 324 -40 709
-1 393 10 585 41 771 167 997 615 1871 1322 2576 541 540 1152 917 1860 1148
264 86 568 155 892 202 115 16 178 18 545 14 228 -2 476 -9 550 -15z"/>
<path d="M7595 7969 c-386 -28 -833 -128 -1170 -261 -233 -92 -534 -253 -795
-425 -446 -294 -810 -614 -1185 -1043 -125 -142 -115 -138 -249 -102 -70 19
-105 22 -297 22 -198 0 -225 -2 -311 -24 -643 -168 -1299 -784 -1717 -1616
-88 -175 -114 -242 -115 -297 -1 -40 3 -49 34 -74 52 -44 81 -39 180 31 512
358 730 473 974 510 142 21 259 -13 355 -106 49 -49 53 -55 49 -91 -3 -21 -11
-60 -19 -87 l-14 -48 517 -514 c326 -323 527 -516 544 -520 14 -4 50 -1 79 5
64 14 89 5 147 -56 87 -89 118 -242 84 -407 -41 -197 -204 -512 -421 -811
-125 -173 -138 -218 -84 -280 42 -47 67 -46 192 12 312 142 619 330 883 541
135 107 386 352 485 472 193 235 382 614 420 846 9 48 13 153 13 269 -1 165
-4 200 -24 270 -12 44 -23 89 -24 100 -1 14 43 60 144 150 179 161 462 442
599 595 219 245 496 640 669 955 261 475 452 1231 452 1791 0 127 -7 155 -46
181 -33 21 -164 26 -349 12z m165 -284 c0 -244 -85 -719 -187 -1038 l-47 -148
-299 298 c-329 328 -687 700 -687 713 0 11 205 78 361 119 201 52 632 118 787
120 l72 1 0 -65z m-890 -841 l569 -566 -40 -81 -41 -80 -236 234 c-131 129
-407 403 -614 609 l-378 375 73 37 c39 20 78 37 85 38 7 0 269 -255 582 -566z
m-82 -466 l463 -464 -111 -163 c-508 -751 -1106 -1308 -1935 -1798 -299 -178
-701 -383 -749 -383 -31 0 -122 84 -497 457 l-397 395 81 166 c318 659 652
1158 1121 1671 297 326 637 611 1065 893 l103 68 197 -189 c108 -104 404 -398
659 -653z m-2822 -439 c32 -5 85 -17 117 -26 l57 -16 -26 -46 c-15 -25 -77
-125 -137 -221 -157 -249 -275 -453 -406 -703 -63 -119 -118 -217 -123 -217
-5 0 -37 23 -71 51 -76 62 -182 114 -264 129 -105 21 -252 9 -363 -29 -149
-51 -380 -166 -540 -270 -24 -15 -23 -14 9 44 55 100 275 424 354 523 331 413
730 697 1092 777 74 16 222 18 301 4z m1954 -1841 c18 -47 25 -347 11 -438
-24 -151 -116 -370 -226 -535 -165 -247 -435 -507 -755 -727 -89 -62 -276
-180 -328 -207 -23 -12 -23 -12 -11 11 7 13 30 52 52 88 98 161 209 414 242
552 42 179 2 340 -132 522 -24 32 -43 61 -43 65 0 10 77 55 270 156 228 119
456 255 705 419 105 69 193 125 197 126 3 0 12 -15 18 -32z"/>
<path d="M5699 6216 c-93 -25 -194 -100 -249 -187 -147 -228 -54 -537 198
-657 147 -70 320 -53 451 43 169 124 229 341 151 548 -41 108 -162 214 -289
251 -64 19 -196 20 -262 2z m242 -224 c74 -38 130 -119 137 -195 7 -87 -51
-182 -138 -227 -90 -46 -221 -15 -290 68 -42 51 -64 130 -52 186 35 165 197
244 343 168z"/>
<path d="M3158 4183 c-21 -23 -116 -192 -207 -366 l-72 -137 30 -38 c27 -33
510 -516 704 -702 l77 -75 98 49 c108 54 359 197 393 225 l23 18 -341 349
c-188 192 -420 427 -515 522 -164 163 -175 172 -190 155z m455 -731 l249 -249
-62 -36 c-34 -21 -64 -37 -68 -37 -3 0 -138 131 -298 292 l-293 291 26 51 c14
28 30 57 35 63 14 17 93 -56 411 -375z"/>
<path d="M2579 3063 c-131 -130 -239 -241 -239 -247 0 -7 21 -33 48 -59 l47
-47 250 251 250 250 -47 44 c-26 25 -52 45 -58 45 -6 0 -119 -106 -251 -237z"/>
<path d="M2625 2727 l-390 -384 50 -57 49 -57 392 392 c319 319 391 396 384
409 -11 20 -77 80 -88 80 -4 0 -182 -173 -397 -383z"/>
<path d="M2927 2622 l-297 -297 48 -48 c26 -26 52 -47 57 -47 13 0 585 572
585 585 0 6 -21 32 -48 58 l-47 47 -298 -298z"/>
<path d="M2197 2682 c-26 -26 -47 -52 -47 -58 0 -5 22 -31 48 -57 l48 -47 47
48 c26 26 47 52 47 58 0 5 -22 31 -48 57 l-48 47 -47 -48z"/>
<path d="M2487 2181 l-52 -50 50 -45 c28 -25 54 -45 58 -46 5 0 29 19 54 43
46 43 46 44 29 70 -10 14 -33 38 -52 52 l-34 26 -53 -50z"/>
<path d="M2091 2189 c-17 -17 -31 -37 -31 -45 0 -8 19 -35 42 -60 l41 -45 39
38 c61 59 63 67 27 108 -40 45 -76 47 -118 4z"/>
</g>
</svg>
